<svg xmlns="http://www.w3.org/2000/svg" width="16" height="16" viewBox="0 0 16 16">
  <path fill="currentColor" fill-rule="nonzero" d="M14.56 2.06c.243.243.44.718.44 1.061V11.5a1.5 1.5 0 0 1-1.5 1.5H11v1.5A1.5 1.5 0 0 1 9.5 16h-7A1.5 1.5 0 0 1 1 14.5v-10A1.5 1.5 0 0 1 2.5 3H5V1.5A1.5 1.5 0 0 1 6.5 0h5.379c.343 0 .818.197 1.06.44l1.622 1.62zM9.313 14.5a.188.188 0 0 0 .188-.188V13h-3A1.5 1.5 0 0 1 5 11.5v-7H2.687a.188.188 0 0 0-.187.187v9.625c0 .104.084.188.187.188h6.625zm4-3a.188.188 0 0 0 .188-.188V5h-2.75a.75.75 0 0 1-.75-.75V1.5H6.687a.188.188 0 0 0-.187.187v9.625c0 .104.084.188.187.188h6.625zm.188-8v-.301a.215.215 0 0 0-.055-.133l-1.511-1.511A.188.188 0 0 0 11.8 1.5H11.5v2h2z"/>
</svg>