<?xml version="1.0" encoding="utf-8"?>
<!-- Generator: Adobe Illustrator 25.2.0, SVG Export Plug-In . SVG Version: 6.00 Build 0)  -->
<svg version="1.1" id="Layer_1" xmlns="http://www.w3.org/2000/svg" xmlns:xlink="http://www.w3.org/1999/xlink" x="0px" y="0px"
	 viewBox="0 0 970 250" xml:space="preserve" width="96" height="25">
<style type="text/css">
	.st0{clip-path:url(#SVGID_2_);fill:#990000;}
</style>
<g>
	<path class="st0" d="M448,112.8c-17.1-11.5-33.3-22.4-33.3-43.7c0-12.6,7.6-26.1,28.8-26.1c18.3,0,29.7,9.2,33.2,26.7
		c0.1,0.4,0.4,0.7,0.8,0.7h1.4c0.2,0,0.4-0.1,0.6-0.3c0.2-0.2,0.2-0.4,0.2-0.6c-0.2-3.5-0.2-9.5-0.2-13c0-6,0.2-10.2,0.7-15.6
		c0-0.2-0.1-0.5-0.3-0.7c-0.2-0.2-0.5-0.2-0.7-0.2c-1.4,0.2-2.5,0.2-4,0.2c-4.2,0-8.3-0.8-12.7-1.6c-5.5-1-11.7-2.2-19.5-2.2
		c-26.9,0-45.7,17.9-45.7,43.4c0,26.9,19.3,39.8,37.9,52.2c17.9,11.9,34.9,23.2,34.9,46.1c0,21.6-16.2,31.3-32.2,31.3
		c-18.5,0-37.3-10-37.3-29.2c0-1.6,0.2-3.3,0.4-5.1l0.1-0.8c0-0.2-0.1-0.5-0.2-0.6c-0.2-0.2-0.4-0.3-0.6-0.3H399
		c-0.3,0-0.6,0.2-0.8,0.5c-2.8,6.1-3,13.3-3,15.3c0,3.1,0.3,5.9,0.6,8.7c0.3,2.6,0.6,5.1,0.6,7.8c0,2.1,0,4.9-0.2,6
		c-0.1,0.3,0,0.5,0.2,0.7c0.2,0.2,0.5,0.3,0.7,0.2c1.4-0.2,2.1-0.2,3.5-0.2c5.3,0,9.6,1,14.3,2c5.5,1.2,11.8,2.6,20.7,2.6
		c30.2,0,51.3-20.2,51.3-49.1C486.9,138.9,467.1,125.6,448,112.8"/>
	<path class="st0" d="M779.9,128.7c0,50-25.3,81.1-66,81.1c-40.3,0-64.3-30.9-64.3-82.6c0-38.6,16.8-83.8,64.3-83.8
		C744.3,43.5,779.9,65.8,779.9,128.7 M715.8,36.5c-56.8,0-90.8,46.5-90.8,91.4c0,43.8,33.2,89,88.8,89c50.6,0,90.3-39.4,90.3-89.7
		C804.1,76.4,765.4,36.5,715.8,36.5"/>
	<path class="st0" d="M903.2,89.3c0,27.6-14.4,40.5-45.3,40.5h-11.3V45.6c7.2-1.9,12-2.3,17.4-2.3C887.8,43.4,903.2,61.4,903.2,89.3
		 M953.3,214c-14.7-5-31.8-34.9-44.3-56.7c-7.1-12.4-12.8-22.5-16.9-26.3c21.4-8.1,34.1-24.7,34.1-44.8c0-30.4-23.8-50-60.6-50
		c-2.6,0-6.8,0.1-11.3,0.2c-5.1,0.1-11,0.3-15.1,0.3c-11.1,0-15.7,0-24.3-0.5c-0.2,0-0.4,0.1-0.6,0.2c-0.2,0.2-0.3,0.4-0.3,0.6v1.2
		c0,0.4,0.3,0.7,0.7,0.8c8.6,1.3,11.5,4.6,11.5,21.6v132.1c0,19.7-3.3,20.2-12,21.6c-0.4,0.1-0.7,0.4-0.7,0.8v1.2
		c0,0.2,0.1,0.4,0.3,0.6c0.2,0.2,0.4,0.3,0.6,0.2c5.1-0.2,12.2-0.5,22-0.5c10.4,0,18.9,0.3,22,0.5c0.2,0,0.4-0.1,0.6-0.2
		c0.2-0.2,0.3-0.4,0.3-0.6V215c0-0.4-0.3-0.7-0.7-0.8c-8.7-1.4-12-1.9-12-21.6v-56H862c2.8,0,6.3-0.3,10.4-0.9
		c4.5,4.1,9.6,13.7,12.7,19.5c0.7,1.2,1.2,2.3,1.7,3.1c29.7,54.7,33,58,59.8,59c3.1,0,4.1,0,6.4-0.2c0.4,0,0.7-0.4,0.7-0.8v-1.5
		C953.8,214.4,953.6,214.1,953.3,214"/>
	<path class="st0" d="M631.1,37.3c0.1-0.2,0-0.5-0.1-0.7c-0.2-0.2-0.4-0.3-0.7-0.3c-11.9,0.2-74.2,1.2-130.2,0
		c-0.4,0-0.7,0.2-0.8,0.6c-1.1,4.5-2.3,8.4-3.3,12.1c-1.3,4.6-2.6,8.9-3.5,13.4c0,0.2,0,0.5,0.2,0.7c0.2,0.2,0.4,0.3,0.6,0.3h1.2
		c0.3,0,0.6-0.2,0.7-0.5c7.2-15.2,18.9-15.3,57.4-15.3v145c0,19.7-3.2,20.2-11.8,21.6c-0.4,0.1-0.7,0.4-0.7,0.8v1.2
		c0,0.2,0.1,0.4,0.3,0.6c0.2,0.2,0.4,0.2,0.6,0.2c5.1-0.2,12.1-0.5,21.8-0.5c10.3,0,18.6,0.3,21.8,0.5c0,0,0,0,0,0
		c0.2,0,0.4-0.1,0.6-0.2c0.2-0.2,0.3-0.4,0.3-0.6v-1.2c0-0.4-0.3-0.7-0.7-0.8c-8.6-1.4-11.8-1.9-11.8-21.6v-145
		c44.1,0,50,1.7,50,8.3c0,1.2-0.3,2.6-0.5,3.5c-0.1,0.2,0,0.5,0.1,0.7c0.2,0.2,0.4,0.3,0.6,0.3h1.5c0.4,0,0.7-0.3,0.8-0.7
		C626.1,55.8,628.9,43.9,631.1,37.3"/>
	<path class="st0" d="M380.4,36.3c-4.9,0.2-14.6,0.5-23,0.5c-8.8,0-18.7-0.2-23.9-0.5c-0.2,0-0.4,0.1-0.6,0.2
		c-0.2,0.2-0.3,0.4-0.3,0.6v1.2c0,0.4,0.3,0.7,0.7,0.8c8.7,1.4,14.4,2.2,14.4,20.8v107.2c0,20.2-9.8,42-25.8,42
		c-2.9,0-5.7-0.2-8.4-0.7c-11.1-2.7-17.9-10.3-22.1-15.7c-0.6-0.8-1.1-1.5-1.7-2.3c-4.6-6.6-6.7-12.5-6.7-12.7
		c-0.2-0.5-0.7-0.8-1.3-0.7c-0.6,0.1-0.9,0.7-0.9,1.2l3.7,28.2c0,0.4,0.2,0.7,0.5,0.9c10.3,6.6,23.2,8.6,25.7,8.8l0,0
		c4.1,0.6,7.4,0.8,9.6,0.8c1.6,0,2.5-0.1,2.6-0.1c26.5,0,44.3-21.1,44.3-52.4V59.9c0-18,4.4-18.9,13-20.7l0.5-0.1
		c0.4-0.1,0.7-0.4,0.7-0.8v-1.2c0-0.2-0.1-0.4-0.3-0.6C380.9,36.3,380.6,36.2,380.4,36.3"/>
	<path class="st0" d="M160.4,77.5l-6.3-3.8c0.9-3.9,4.9-20,14.9-30.6c10.3-10.9,22.6-14.5,33.5-14.6c5.9-0.1,11.4,0.8,15.9,1.8
		c0.5,0.1,1,0.2,1.5,0.3c4.3,0.9,8.8,1.8,12,1c1.7-0.4,3.2-1.1,4.3-1.6c0.7-0.3,1.4-0.7,1.5-0.6c0,0,0,0,0.1,0.1
		c0.2,0.7-0.5,2.8-2.5,5.5c-1.3,1.7-2.8,2.7-3.9,3.4c-1,0.6-1.7,1.1-1.7,1.7c0,0.3,0.3,0.9,0.9,2c1.9,3.4,5.9,10.5,5.5,20.5
		c-0.7,15.4-8.2,22-13.2,26.3l-0.6,0.5l-0.1,0c-3.3,3.7-2.9,7.1-1.9,9.4c1.4,3.4,4.6,6.1,8.7,7.5c2.4,0.8,4.9,1.1,6.8,1.3
		c1.4,0.2,2.7,0.3,2.9,0.6c0.4,0.9-0.8,2.4-3.6,4.2c-2.1,1.3-4.3,1.6-4.3,1.6c-0.1,0-0.1,0.1-0.1,0.1c0,0.1,0,0.1,0.1,0.2
		c0.1,0,5.7,4.8,6.2,11.3c0.6,6.6-0.4,10.2-3.8,13.3c-2.7,2.5-6.6,2.9-8.1,2.5c-0.3-0.1-0.4-0.2-0.4-0.2c-0.2-0.8,1.1-1.7,2.5-2.7
		c0.3-0.2,0.7-0.5,1-0.7c1.9-1.3,3-3.6,2.4-4.8c-0.2-0.4-0.6-0.5-1-0.4c-0.3,0-0.7,0.1-1.1,0.2c-0.8,0.2-1.6,0.5-2,0
		c-0.5-0.5-0.3-0.9,0.1-1.7c0.3-0.7,0.7-1.5,0.8-2.6c0.2-2.5-0.1-9.1-3.7-9.8c-0.1,0-0.3,0-0.4,0.1c-0.3,0.3-0.4,1.1-0.4,2.4
		c0,1.7-0.1,3.9-1,5.4c-1.5,2.3-3.9,4.1-5.1,4.1c-0.3,0-0.4-0.1-0.5-0.2c-0.2-0.2,0-0.7,0.1-1.5c0.4-1.9,1.1-5.4,0.1-12
		c-0.4-2.3-1.8-4.8-3.1-7.2c-1.3-2.3-2.5-4.5-2.8-6.4c-0.5-3.5-0.1-5,1.9-6.5c1.2-0.9,1.4-1.7,1.4-2.2c0-0.5-0.3-1.5-1.3-1.9
		c0,0-0.1,0-0.1,0c0,0,0,0,0,0c-0.5-0.1-1.3-0.2-2.2-0.2c-3.8,0-12.7,0.1-19-8.2c-5.1-6.8-5.5-13.2-4.5-20.6c0,0,0,0,0-0.1
		c0-0.1-0.6-2.9-3-5.1c-1.2-1-2.3-1.6-3.2-2c-0.5-0.2-1-0.5-1-0.6c0,0,0-0.1,0.1-0.2c0.6-0.6,2.8-1.5,5.7-1.1
		c2.2,0.3,3.8,1.2,3.8,1.2c0.1,0,0.2,0,0.2,0c0.1-0.1,5.8-6.8,15.5-6c5.8,0.4,11.3,6,11.4,12c0.1,6.1-2.7,9.2-5.2,10
		c-2,0.7-3.9,0.6-5-0.1c-0.5-0.4-0.8-0.8-0.8-1.4c0-0.5,0.4-0.8,1.3-1.2c1.4-0.7,3.5-1.7,3.8-5.5c0.1-1.9-0.6-3.9-1.8-5.3
		c-0.9-1-2.5-2.1-5.1-2c-3.4,0.1-6.1,1.5-8,3.8c-2.4,3-3.2,7.6-2.3,13c1.3,7.8,9,13.2,17.4,12.3c5-0.5,9.6-3.2,13.1-7.7
		c3.3-4.2,5.2-9.6,5.3-14.8c0.2-13-7.5-26.4-25.1-27c-16.8-0.6-27.2,9.6-32,15.7c-3,3.8-6.1,11-8.3,16.9c1-0.2,4.3-0.6,7.2,0.8
		c2.9,1.4,6.4,4.9,5.8,6.4c-0.2,0.4-1.1,0.2-2.3-0.1c-1.7-0.4-4.1-0.3-6.9,0C162.8,76.2,160.9,77.1,160.4,77.5 M235.6,165.7
		c-1.5,8.7-6.6,12.4-10.8,13c-0.3,0-0.7,0.1-1,0.1c-1.2,0-2.2-0.3-2.5-0.9c-0.1-0.2-0.1-0.4-0.1-0.6c0.1-0.3,0.6-0.5,1.3-0.8
		c0.8-0.3,2-0.7,3.2-1.7c3.6-2.8,3.4-4.1,3.3-5c0-0.1-0.1-0.2-0.1-0.2c-0.2-0.1-0.8,0.2-1.4,0.5l-0.3,0.1c-0.8,0.4-1.6,0.5-2.2,0.2
		c-0.3-0.2-0.6-0.5-0.6-0.8c-0.1-0.4,0.4-0.8,1-1.3c0.5-0.4,1-0.9,1.4-1.4c1.8-2.9,2.2-6.3,0.8-9c-1.1-2-2.6-3.9-7-4.3
		c-0.1,0-0.2,0-0.3,0c0,0-0.1,0-0.2,0c-0.6,0-1.2,0.1-1.8,0.2c-4.9,0.9-8.3,4.2-10.5,7.7c0,0-0.1,0.1-0.1,0.2
		c-3,4.4-3.8,11.1-4,12.5l0,0c-1,6.2-3,15.3-16.2,31.3c-1.5,1.8-2.7,4.5-1.9,7.4c1.4,5.1,6.4,5.6,6.4,6.1c0,0.7-1.1,0.8-3,0.6
		c-1.9-0.1-2.5-0.7-2.5-0.7s-0.5,1.2,2.6,3.4c2.4,1.7,5,1.6,5.1,2.3c0.1,0.9-14.6,4.2-15.5-10.3c0-0.3,0-0.7-0.1-1
		c-15.8,14.2-20.4,14.9-21.6,13.4c-0.5-0.7,1-0.6,4-3.9c3.1-3.4,3.2-5,3.2-5s-6.2,3.3-13.3,2.6c-7.3-0.6-13.4-5.7-12.9-7.7
		c0.4-1.7,4.7,1.2,10,0.4c4.8-0.7,5.3-2.6,5.3-2.6s-0.9,0-2.5-1.6c-1.6-1.6-3.9-2.9-2.6-4.3c0.8-0.8,4.4,0.8,8,0.8
		c4.6,0,7.5-1,7.5-1s-1.9-0.7-3.8-2.5c-2-1.9-2.4-3.8-1.8-4.3c0.3-0.3,1.1,1.2,3.6,1.2c3-0.1,3.3-0.7,3.3-0.7s-1.3-1.1-1.8-2.2
		c-0.6-1.1-2.3-4.4-1.2-5.6c0.3-0.4,3.7,3.7,8.7,4.1c8.5,0.8,17.9-5.9,17.9-5.9s-4.6,5.6-14.5,13.9c-6.3,5.3-14.2,9.6-13.8,10.6
		c0.5,1.2,6.8-0.2,17.5-9c3.4-2.8,5.6-4.7,10.3-10.3c8.3-10,10.2-21,8.5-29.8l0,0c-0.7-3.4-1.6-6.6-2.7-9.2
		c-4.6-9.8-9.6-14.5-17.9-17.7c-7.4-2.8-13.1-0.2-16.5,1.3c-1.7,0.8-2.9,1.3-3.4,0.6c-1.5-2.1,1.5-4.9,4.2-7.5
		c3.4-3.2,5.7-4.5,6.3-4.8c-0.6-0.3-2.9-1.4-5-1.5c-1.1-0.1-2.4,0.1-3.5,0.3c-1.7,0.3-3.1,0.5-3.3-0.4c-0.4-1.7,6.7-4.7,10.5-6
		c3.9-1.3,7-1.4,7.5-1.4c-0.1-0.8-0.7-7.2,0-16.4c0.4-4.9,1.3-8.3,2-10.3c0.9-2.5,1.9-4.2,2.9-4.7c0.4-0.2,0.7-0.2,1,0
		c0.6,0.4,0.6,1.6,0.6,3.5c0,1.2,0,2.6,0.1,4.2c0.4,4.6,2,7.2,2.8,7.8c0.2,0.1,0.3,0.1,0.4,0.1c0.3-0.2,0.4-0.7,0.6-1.6
		c0.2-1.1,0.4-2.6,1.4-4.5c1.5-3.1,4.5-6.9,5.6-6.6c0.3,0.1,0.4,0.4,0.3,0.9c-0.1,1.5-0.3,2.8-0.6,4.1c-0.5,2.8-1,6-0.7,12
		c0.4,8.7,4.6,9.9,5.1,10c0.3-0.4,2.3-3.9,5.2-6.9c0.6-0.6,1.2-1.3,1.8-1.9c1.8-2,3.3-3.6,4.3-3.6c0,0,0.1,0,0.1,0
		c0.3,0,0.5,0.2,0.7,0.5c0.4,0.6-0.2,2-1.2,4.3c-1.3,3.2-3.3,8-4.2,13.9c-1.6,11.3,0,22.2,0,22.3l0.1,0.8l-0.3-0.7
		c0,0-1-2.7-5.1-8.5c-1.8-2.6-3.3-4.2-4.6-5.7c-1.8-1.9-3.4-3.7-5.7-7.4c-2.7-4.4-3.3-7.6-3.7-9.8c-0.4-1.8-0.5-2.7-1.6-2.8
		c-0.1,0-0.2,0.1-0.3,0.2c-0.9,1.4-0.4,9.3,2,14c1.3,2.5,2.9,4.5,4.7,6.8c1.9,2.4,4,5,6.5,9.1c4.6,7.4,6.9,12.8,8,16.1
		c0.3,0.8,0.5,1.5,0.7,2.1c0.6-1.1,1.5-2.4,1.7-2.6c8.2-8.8,15.3-9.4,20.2-8.3l0.1,0c3.6,0.7,6.7,2.7,8.9,5.8
		C235.2,157.1,236.3,161.6,235.6,165.7 M233.8,210c0,0,0,0.1-0.1,0.2c-1.8,6.2-5.7,10.5-11,12.1c-1.7,0.5-3.2,0.7-4.7,0.7
		c-3.6,0-6.6-1.4-9.9-3.4c-0.2,0-2-0.3-3.8,0.7c-0.9,0.5-1.6,1.2-2.1,1.6c-0.4,0.4-0.7,0.7-0.9,0.6c-0.1,0-0.2-0.1-0.3-0.3
		c-0.3-0.7-0.3-2.5,0.9-4.6c0.7-1.3,1.5-2.1,1.8-2.3c-0.4-0.8-2.7-6.5,0.3-12.7c2-4.2,7.3-6.5,11.2-4.8c4,1.6,5.3,4.6,5.1,6.7
		c-0.1,1.7-0.7,3.1-1.6,3.7c-0.4,0.3-0.9,0.4-1.3,0.2c-0.5-0.2-0.5-0.7-0.6-1.4c-0.1-1.2-0.1-2.8-2.3-4c-1.1-0.6-2.4-0.7-3.5-0.2
		c-0.8,0.3-2,1.1-2.6,2.9c-0.8,2.4-0.7,4.7,0.3,6.6c1.3,2.4,3.9,4.1,7.4,4.9c5.2,1.2,10.6-2.6,12.3-8.6c0.5-1.8,0.8-3.9,0.1-6.2
		c-1.4-4.4-4.5-8.5-12-12.1c-2.6-1.2-7.9-3.5-10-4.4c1.1-3.2,1.3-4.3,1.7-5.4c0.7-1.1,2.6-2.9,4.5-3.3c2.2-0.5,4.7,0.6,4.6,1
		c-0.1,0.4-2.9,1.1-4.5,4.7c0.6,0.3,5.9,1.7,10.5,4.6c7.7,4.9,9.8,10,10.4,12.3C234.9,203.7,234.7,207.2,233.8,210 M159.5,90.8
		c-4.6-4.2-8.4-5.3-8.4-5.3v-7.9c2.2,1.1,7.3,3.7,10.2,6.1c2.9,2.3,5.1,4.7,6.9,6.6l-1.2,8C164.9,96.1,162.2,93.2,159.5,90.8
		 M153.7,105.2c-1.3-9-0.8-13.3-0.8-13.3c2.1,0.7,5.6,4.1,6.8,5.4c0,0-0.3,1.2,0.6,6.8c0.7,4.2,1.9,8.1,2.4,9.7l-6.5,3
		C155.6,114.6,154.4,110.1,153.7,105.2 M158.6,159.6c0.8,6,5.8,11.7,13.1,10.9c3.1-0.3,5.3-1.7,6.8-3.3l-0.5-0.4l0.1-0.1
		c-1-0.9-4.3-4-7.1-7.4c-2.7-3.4-4-5.2-4.3-5.5l-0.8-1.1c0.1-0.1,1-0.7,3.6-0.6c2.9,0.1,5.8,2.4,6.6,3l0,0c0,0,1.4,1.5,5.8,6
		c5.2,5.4,9,7.9,9.6,8.3c0,1.5-0.4,4.6-1,6.7l0,0c-2.4-1.3-5.6-3.9-7.1-5.1c-0.2-0.2-0.4-0.3-0.5-0.4c-1.9,2.3-4.8,4.6-9,5.7
		c-1,0.2-2,0.4-3.1,0.3c-9.4-0.3-15.7-7.1-17.2-13.8c-0.6-2.5-0.4-5.7-0.3-7.9c0.1-1.9,0.2-3.6-0.2-4.8c-0.5-1.4-1.2-2.3-1.6-2.9
		c-0.4-0.6-0.7-1-0.4-1.3c0.5-0.6,2.1-0.2,3.6,0.8c1,0.6,1.4,1.4,1.5,1.8c0.9-1.3,5.3-7.1,12.8-7.4c2.5-0.1,4.8,0.5,6.6,1.6
		c1.4,0.9,2.4,2.2,2.8,3.4c0.3,1,0.3,1.8-0.4,2.2c-0.4,0.2-1.2-0.2-2.3-0.7c-1.6-0.8-4.1-1.6-7-1.2c-2.3,0.3-5.7,1.9-7.9,4.8
		C159,153.4,158.2,156.4,158.6,159.6 M103.3,225c-9.3,1.6-26.9-0.9-26.9-0.9l-9.1-28.8c0,0,9.4,8.7,14.4,12.6
		c5,3.8,9.6,5.9,16.6,5.9c7,0,11.8-1.7,17-7.2c5.1-5.4,7.1-12.4,8.4-20.6c0.9-5.9,0.5-22.4,0.5-26.2l1.3-89.3c0,0,0.6-19.3-0.8-24.1
		c-1.4-4.9-4.4-8.4-6.2-10.2c-4-4-12.3-5.4-12.3-5.4c-2.4-0.4-2.9-1.6-2.8-2.7c0.3-1.7,1.8-2,1.8-2l59.5,0.1c0,0,1.5,0.2,1.7,1.9
		c0.2,1.2-0.3,2.3-2.8,2.7c0,0-8.4,1.3-12.3,5.4c-1.8,1.8-4.8,5.4-6.2,10.2c-1.4,4.9-0.8,24.1-0.8,24.1V160c0,0,0.2,17.3-2.1,26.4
		c-1.6,6.4-5.3,18.8-15,27.4C118.5,221.6,111.7,223.6,103.3,225 M60.7,209.2c-3.2,6.7-8.7,12.6-9.6,11.7c-0.8-0.8,0.2-1.5,0.8-3.5
		c0.5-2,0.7-2.5,0.7-2.5s-1.5,2-6.6,5.2c-5.2,3.2-6.1,3.4-7,2.1c-0.5-0.8,0.8-1.7,2-3.8c1.2-2.1,0.8-1.9,0.8-1.9s-4.4-0.4-8-2
		c-3.6-1.6-7.4-5.2-7.3-6c0.1-1,1.6-1.5,4.4-2.8c2.9-1.4,4.9-3.2,4.9-3.2s-1.9-0.5-3-0.9c-1.7-0.8-3.5-1.6-2.4-2.7
		c1-0.9,5.6,2.2,12.7-4.4c6.3-5.8,6.3-14.3,6.3-14.3s3.1,9.9-1,17.9c-5,9.7-14.3,9.8-13.2,11.8c1.3,2.5,12.6,0.2,17.5-11.4
		c4.1-9.8-0.2-22.2-3.3-29.5c-0.9-2.1-2.1-4.9-2.8-7.1c2.9,1.3,5.1,1.9,7.5,2.2l0,0c0,0,0,0,0,0c0.1,0,0.4,0.6,0.4,0.6
		c2.8,4.3,7,5.8,9.3,6.7c2.2,0.8,4.5,1.2,6.8,1.2c2,0,4.1-0.3,6-1c1.2-0.4,2.4-1.1,3.3-2c2.7-2.9,3.4-11.9,4.7-12.5
		c0.6-0.3,2,1.9,2.5,3.6c0.5,1.7,0.3,3.3,1.3,3.7c0.7,0.3,1.2-0.5,2.8-2.3c2.2-2.5,1.9-3.6,3-3.1c1.1,0.4-0.1,6-0.6,9
		c-0.5,3-2,7.4-2,7.4s3.7-2.3,7.1-3.9c9.6-4.2,13.3-2.9,13.4-1.8c0.1,1.1-2.2,1.3-4.7,4.2c-1.8,2.1-1.4,2.6-1.4,2.6s1.4,0,5.4-1.1
		c2.8-0.8,5.3-2.1,6.1-0.9c0.8,1.2-2.9,6.1-8.6,9.9c-5.7,3.9-10.4,5.3-10.4,5.3s1.1,1.1,3.9,1.6c2.8,0.5,4,0.1,4.2,0.9
		c0.3,1.1-2.8,2-8.2,2.6c-7.6,0.8-11.5-2.5-11.5-2.5s1,2.7-0.2,5.4c-1.2,2.8-1.4,5.3-2.5,5.2c-1.1-0.2,0.2-2.8-1.9-5.4
		c-2.3-2.8-4.9-3.4-8.8-6.3c-3.8-2.9-3.9-5.1-3.9-5.1s6.6,2.4,17.5,0.8c10.4-1.6,13.6-4.7,12.9-5.8c-0.7-1-2.4,0.3-7.3,1.4
		c-5.8,1.3-13.5,0.9-22.2-0.5c-3.1-0.5-7.2-1.9-10.9-4.3c1.5,2.8,3.9,8,4.4,11.6C64.8,195.4,64,202.4,60.7,209.2 M54,117.5
		c0.4-2.8,2-5.7,3-7c3.8-0.7,6.2,1.4,6.6,1.7c-2.1,3.9-3.4,8.2-4.5,12.6C57.7,124.2,55.7,122.3,54,117.5 M54.9,146.8
		c-2-0.2-6.9-3.5-7.2-4.3c0-1.7,0.4-5.5,1.1-7.7c2.5,4.2,6.6,6.1,6.6,6.1C54.7,143.6,54.9,146.8,54.9,146.8 M34.6,109.2
		c0.5-1.3,0.9-2.3,1.3-3.1c0.8-1.8,1.3-2.9,1.5-5.4c0.2-2.9-0.7-5.1-1.3-5.7c0.7,0.1,3.1,1.1,4,3c0.8,1.6,1.9,5.6,1.7,6.3
		c0,0.2,0,0.2,0.1,0.3c0.2,0.1,0.3,0,0.8-0.4c1.6-1.2,6.4-4.7,15-4.8h0.1c15.7,0,22.6,14.3,22.7,14.4l0,0.1l0.1,0
		c0.1,0,2.2,0.6,6.3-1.2c1.6-0.7,2.6-1.5,3.6-2.4c1.6-1.4,2.9-2.5,6.8-2.7c3.9-0.1,6.7,2,7.3,3.5c0.1,0.4,0.2,0.8-0.3,1.2
		c-0.6,0.4-0.7,0.4-1,0.2c-0.5-0.2-1.4-0.7-4.3-0.2c-2.4,0.4-3.5,2.5-4.7,4.8c-1.3,2.5-2.6,5.1-5.6,5.8c-2.8,0.7-6-1.1-6.6-2.1
		c-0.2-0.3-0.4-0.6-0.7-0.5c-0.3,0.1-0.4,0.5-0.4,0.6c0,0-0.1,2.4-1.6,6.5c-1.4,3.8-7.7,12.9-20.2,9.5c-7.6-2-10.6-9-10.3-13.4
		c0.1-1.4,0.6-2.4,1.2-2.4c0.6-0.1,1,0.3,1.2,0.7c0.6,1.6,1.2,3.2,2,4.6c1.2,1.9,3.5,4.2,6.3,4.8c6.2,1.3,10-1.8,10.7-2.4
		c2.4-2.1,3.7-5.7,3.5-9.6c-0.3-4.9-2.9-8.1-5.1-9.8c-2.8-2.3-6.4-3.6-9.9-3.6c-0.1,0-0.2,0-0.3,0c-4.5,0-9.2,1.8-12.8,5
		c-4.5,4-7.2,9.9-7.7,17.2c-0.5,6.2,2.1,13.1,6.8,18.1c3.6,3.8,8.1,6,12.6,6h0.2c11.8,0,19.5-7.2,27.6-14.8
		c7.6-7.1,15.4-14.4,27.7-17.8c0.9-0.2,5.1-0.6,6-0.7l-0.2,6.6c-6.9,1.3-16.5,5.6-16,10.3c0.5,4.6,3.5,7.1,5,8.3
		c0.3,0.3,0.7,0.5,0.7,0.6c0,0-0.2,0.2-0.6,0.3c-1.3,0.5-4.3,0.8-6.7-0.3c-3.2-1.4-6.3-6.5-6.3-6.6l-0.1-0.2l-0.2,0.2
		c-0.1,0.1-9.5,9.7-14.6,13.4c-3.3,2.4-12.1,8.7-22.4,8.2c-7.1-0.3-13.8-3.5-18.7-9c-5.1-5.8-7.9-13.7-7.8-22.4
		C30.9,120.3,31.8,116.7,34.6,109.2 M57.4,26.2c0.1,0,7.4-0.6,14.4,2.1c3.1,1.2,5.3,2.7,7.2,4.1l0,0c2.9,2,5.1,3.6,8.4,2.6
		c3.7-1.1,4.4-3.9,4.9-5.8c0.1-0.4,0.3-1.3,0.5-1.3c0.2-0.1,0.8,0.2,1.4,1.1c0.7,1,2.5,4.8-2.4,11.7c-2.7,3.8-7.1,4.6-7.2,4.6
		c-0.2,0-0.3,0.1-0.5,0.3c-0.1,0.2-0.1,0.4-0.1,0.5c0.3,1,0.3,1.7,0.4,2.4c0.2,2.4,0,4.7-1.7,8.5c-2.5,5.9-7.5,9.5-14,10.3
		c-6.4,0.7-11.5-2.8-13.4-6.6c-1.7-3.6-1.8-7.7-0.3-11.4c0.4-0.9,1-1.7,1.6-1.8c0.2-0.1,0.4,0,0.7,0.2c0.5,0.4,0.6,1.5,0.6,2.9
		c0.1,1.4,0.1,3.2,0.8,5c1,2.9,4.2,5.6,8.4,5.2c6.3-0.6,10.1-4.9,10.3-11.7c0.1-7.1-4.5-15.5-18-15.8c-0.2,0-0.3,0-0.5,0
		c-5.1,0-9.8,1.9-13.5,5.6c-4.4,4.3-7.1,10.8-7.2,17c-0.2,12.1,6.2,19.2,11.6,22.9c5.5,3.8,14,4.1,24.7,0.7
		c3.6-1.1,7.6-2.7,11.4-4.3l0,0c3.2-1.3,6.6-2.7,9.7-3.8c1.9-0.6,3.9-1.2,5.9-1.5l0.3-0.1l-0.2-0.2c-0.8-1.1-1.9-2.5-3.2-4.3
		c-2.8-3.8-3.5-10.7-2.6-12.2c0.4-0.6,0.8-0.7,1-0.7c0.2,0,0.3,0,0.3,0c0,0.1,0,0.4,0,0.5c0,0.3,0,1.9,0.8,2.8c1,1.1,2.3,1.3,2.9,1
		c0.2-0.1,0.3-0.3,0.4-0.4c0.2-0.6,1.1-3.6,2.8-6c1.4-2,5.8-5.1,8.3-5.1c0.1,0,0.1,0,0.2,0c0.7,0.1,1.1,0.3,1.4,0.9
		c0.3,0.7-0.7,1.8-1.1,2.2c-2.2,2.3-4.8,5.7-5,11.3c-0.1,2.6,0.7,4.8,2.3,6.5c3.1,3.2,8.3,3.6,9.3,3.6v5.8c-0.2,0-0.3,0-0.5,0
		c-5.2,0-9.3,6.1-10.7,12.5c-1.2,5.1-0.1,12.4,0.3,14.5c0.4,2,0,2.4-0.1,2.5c-0.1,0-0.2,0.1-0.3,0c-1.1-0.2-3.1-2.5-5.3-6
		c-1.7-2.6-1.2-5.8-0.9-7.6c0.1-1,0.2-1.4-0.2-1.7l-0.1-0.1c-0.2-0.2-0.6-0.4-0.9-0.4c0,0,0,0-0.1,0c-0.5,0-1,0.3-1.6,0.9
		c-0.5,0.5-0.7,0.9-0.9,1.2c-0.3,0.4-0.3,0.4-1,0.1c0,0-0.1,0-0.1-0.2c-0.5-1.3,1-5.7,2.8-8.9c1.5-2.5,3.1-4.3,5.3-6l0.6-0.5
		l-0.8,0.2c-7.5,1.7-15.1,4.6-19.7,7.7c-5.9,3.9-10.7,8.6-14.3,13.8c-0.7-0.4-1.2-0.7-2.8-1.4c-1-0.4-2.4-0.9-3.5-1
		c1.5-1.9,4-4.6,5-5.7l0.1-0.1c0.1-0.2,0.1-0.5-0.1-0.8c-0.2-0.2-0.5-0.3-0.8-0.2c-0.3,0.1-7,2.6-18.8-1.7C40.4,83.2,30.4,73,31,55
		C31.6,36.7,44.7,27.4,57.4,26.2 M16.2,240h234.2V10H16.2V240z"/>
</g>
</svg>
