<svg xmlns="http://www.w3.org/2000/svg" width="16" height="16" viewBox="0 0 16 16">
  <path fill="currentColor" fill-rule="nonzero" d="M16 1.656v3.5c0 .587-.721.874-1.138.464l-.992-.977-6.764 6.66a.674.674 0 0 1-.943 0l-.629-.62a.649.649 0 0 1 0-.927l6.765-6.66-.992-.976c-.419-.412-.122-1.12.471-1.12h3.555c.369 0 .667.294.667.656zm-4.694 6.749c.42-.414 1.138-.121 1.138.464v4.819c0 .724-.597 1.312-1.333 1.312H1.333A1.323 1.323 0 0 1 0 13.687V4.063C0 3.338.597 2.75 1.333 2.75h8.223c.593 0 .89.707.47 1.12l-.444.438a.772.772 0 0 1-.47.192H1.777v8.75h8.889V9.306c0-.15.087-.358.195-.464l.444-.437z"/>
</svg>
