<?xml version="1.0" encoding="utf-8"?>
<!-- Generator: Adobe Illustrator 25.2.3, SVG Export Plug-In . SVG Version: 6.00 Build 0)  -->
<svg version="1.1" id="Layer_1" xmlns="http://www.w3.org/2000/svg" xmlns:xlink="http://www.w3.org/1999/xlink" x="0px" y="0px"
	 viewBox="0 0 24 24" style="enable-background:new 0 0 24 24;" xml:space="preserve">
<path d="M19,7c-2.8,0-5,2.3-5,5s2.3,5,5,5s5-2.3,5-5S21.7,7,19,7z"/>
<path d="M8.6,8.6c-1.9,0-3.4,1.6-3.4,3.4s1.6,3.4,3.4,3.4S12,13.9,12,12S10.4,8.6,8.6,8.6z"/>
<path d="M1.4,10.6C0.6,10.6,0,11.2,0,12s0.6,1.4,1.4,1.4s1.4-0.6,1.4-1.4S2.1,10.6,1.4,10.6z"/>
</svg>
